<?xml version="1.0" encoding="UTF-8"?>
<svg id="Ebene_1" xmlns="http://www.w3.org/2000/svg" xmlns:xlink="http://www.w3.org/1999/xlink" version="1.1" viewBox="0 0 1920 530">
  <!-- Generator: Adobe Illustrator 29.1.0, SVG Export Plug-In . SVG Version: 2.1.0 Build 142)  -->
  <defs>
    <style>
      .st0 {
        fill: none;
      }

      .st1 {
        fill: url(#Unbenannter_Verlauf_13);
      }

      .st2 {
        fill: url(#Unbenannter_Verlauf_17);
      }

      .st3 {
        fill: url(#Unbenannter_Verlauf_11);
      }

      .st4 {
        clip-path: url(#clippath);
      }
    </style>
    <linearGradient id="Unbenannter_Verlauf_17" data-name="Unbenannter Verlauf 17" x1="-4.3" y1="267" x2="1920" y2="267" gradientTransform="translate(0 532) scale(1 -1)" gradientUnits="userSpaceOnUse">
      <stop offset="0" stop-color="#f3efed"/>
      <stop offset=".8" stop-color="#ded7d1"/>
    </linearGradient>
    <clipPath id="clippath">
      <rect class="st0" width="1920" height="530"/>
    </clipPath>
    <linearGradient id="Unbenannter_Verlauf_11" data-name="Unbenannter Verlauf 11" x1="1326.3" y1="422.6" x2="1847.2" y2="422.6" gradientTransform="translate(0 532) scale(1 -1)" gradientUnits="userSpaceOnUse">
      <stop offset=".1" stop-color="#f3efed"/>
      <stop offset="1" stop-color="#ded7d1"/>
    </linearGradient>
    <linearGradient id="Unbenannter_Verlauf_13" data-name="Unbenannter Verlauf 13" x1="-63.5" y1="964.2" x2="422.3" y2="964.2" gradientTransform="translate(0 532) scale(1 -1)" gradientUnits="userSpaceOnUse">
      <stop offset="0" stop-color="#f3efed"/>
      <stop offset="1" stop-color="#ded7d1"/>
    </linearGradient>
  </defs>
  <rect id="SVGID" class="st2" width="1920" height="530"/>
  <g class="st4">
    <g>
      <path id="SVGID1" data-name="SVGID" class="st3" d="M1311.7-782.4c-117.4,0-224.6,48.5-301.1,125L1707.2,108.1l-696.6,765.5c76.5,79.1,183.7,127.6,301.1,127.6s234.7-53.6,311.3-137.8l385.3-423.5,301.1-331.7-301.1-329.2-385.3-423.6c-76.6-84.2-186.3-137.8-311.3-137.8Z"/>
      <path id="SVGID2" data-name="SVGID" class="st1" d="M-14.6-1263.8c-109.5,0-209.4,45.2-280.8,116.6L354.2-433.4-295.4,280.4c71.4,73.8,171.3,119,280.8,119s218.9-50,290.3-128.5L635-124l280.8-309.4-280.8-306.9-359.3-395c-71.4-78.5-173.7-128.5-290.3-128.5Z"/>
    </g>
  </g>
</svg>